HIERARCHY
ROOT Hips
{
	OFFSET -0.001795 -0.223333 0.028219
	CHANNELS 6 Xposition Yposition Zposition Zrotation Yrotation Xrotation 
	JOINT LeftUpLeg
	{
		OFFSET 0.069520 -0.091406 -0.006815
		CHANNELS 3 Zrotation Yrotation Xrotation
		JOINT LeftLeg
		{
			OFFSET 0.034277 -0.375199 -0.004496
			CHANNELS 3 Zrotation Yrotation Xrotation
			JOINT LeftFoot
			{
				OFFSET -0.013596 -0.397961 -0.043693
				CHANNELS 3 Zrotation Yrotation Xrotation
				JOINT LeftToe
				{
					OFFSET 0.026358 -0.055791 0.119288
					CHANNELS 3 Zrotation Yrotation Xrotation
					End Site
					{
						OFFSET 0.000000 0.000000 0.000000
					}
				}
			}
		}
	}
	JOINT RightUpLeg
	{
		OFFSET -0.067670 -0.090522 -0.004320
		CHANNELS 3 Zrotation Yrotation Xrotation
		JOINT RightLeg
		{
			OFFSET -0.038290 -0.382569 -0.008850
			CHANNELS 3 Zrotation Yrotation Xrotation
			JOINT RightFoot
			{
				OFFSET 0.015774 -0.398415 -0.042312
				CHANNELS 3 Zrotation Yrotation Xrotation
				JOINT RightToe
				{
					OFFSET -0.025372 -0.048144 0.123348
					CHANNELS 3 Zrotation Yrotation Xrotation
					End Site
					{
						OFFSET 0.000000 0.000000 0.000000
					}
				}
			}
		}
	}
	JOINT Spine
	{
		OFFSET -0.002533 0.108963 -0.026696
		CHANNELS 3 Zrotation Yrotation Xrotation
		JOINT Spine1
		{
			OFFSET 0.005487 0.135180 0.001092
			CHANNELS 3 Zrotation Yrotation Xrotation
			JOINT Spine2
			{
				OFFSET 0.001457 0.052922 0.025425
				CHANNELS 3 Zrotation Yrotation Xrotation
				JOINT Neck
				{
					OFFSET -0.002778 0.213870 -0.042857
					CHANNELS 3 Zrotation Yrotation Xrotation
					JOINT Head
					{
						OFFSET 0.005152 0.064970 0.051349
						CHANNELS 3 Zrotation Yrotation Xrotation
						End Site
						{
							OFFSET 0.000000 0.000000 0.000000
						}
					}
				}
				JOINT LeftShoulder
				{
					OFFSET 0.078845 0.121749 -0.034090
					CHANNELS 3 Zrotation Yrotation Xrotation
					JOINT LeftArm
					{
						OFFSET 0.090977 0.030469 -0.008868
						CHANNELS 3 Zrotation Yrotation Xrotation
						JOINT LeftForeArm
						{
							OFFSET 0.259612 -0.012772 -0.027456
							CHANNELS 3 Zrotation Yrotation Xrotation
							JOINT LeftHand
							{
								OFFSET 0.249234 0.008986 -0.001171
								CHANNELS 3 Zrotation Yrotation Xrotation
								End Site
								{
									OFFSET 0.000000 0.000000 0.000000
								}
							}
						}
					}
				}
				JOINT RightShoulder
				{
					OFFSET -0.081759 0.118833 -0.038615
					CHANNELS 3 Zrotation Yrotation Xrotation
					JOINT RightArm
					{
						OFFSET -0.096012 0.032551 -0.009143
						CHANNELS 3 Zrotation Yrotation Xrotation
						JOINT RightForeArm
						{
							OFFSET -0.253742 -0.013329 -0.021401
							CHANNELS 3 Zrotation Yrotation Xrotation
							JOINT RightHand
							{
								OFFSET -0.255298 0.007772 -0.005559
								CHANNELS 3 Zrotation Yrotation Xrotation
								End Site
								{
									OFFSET 0.000000 0.000000 0.000000
								}
							}
						}
					}
				}
			}
		}
	}
}
MOTION
Frames: 13
Frame Time: 0.050000
-1.385634 0.932976 1.835473 -15.080318 -64.551430 4.431902 0.055226 1.538214 7.700050 21.985675 8.808916 58.348486 -18.422249 -14.475458 35.440563 0.000000 0.000000 0.000000 -2.008839 3.200914 -20.382708 15.623986 2.683617 24.162355 -3.092587 -12.839827 8.150025 0.000000 0.000000 0.000000 1.829919 1.129806 20.858143 -5.150273 6.572530 9.864983 12.433542 -12.001708 -12.349099 -17.750197 14.111771 -4.279506 0.000000 0.000000 0.000000 -27.724631 15.103880 -2.385845 -46.126153 -2.921946 -5.272321 -85.579090 -83.857537 97.660806 0.000000 0.000000 0.000000 10.475696 1.610822 -5.166749 33.498335 -8.057455 -3.848382 50.212609 54.487922 19.853163 0.000000 0.000000 0.000000 
-1.486631 0.912035 1.903397 -11.312557 -62.034946 -2.931869 3.319085 0.939077 -2.252864 28.434102 8.014271 75.052665 -18.307479 -16.470444 27.162132 0.000000 0.000000 0.000000 -2.563511 1.462942 -12.884674 8.793054 3.801769 27.832764 -0.881691 -6.283038 5.046688 0.000000 0.000000 0.000000 -2.117234 2.293154 23.347889 -5.643508 6.999867 10.836859 14.786647 -7.217319 -12.688963 -16.469351 13.138127 -2.791129 0.000000 0.000000 0.000000 -32.601049 14.857627 -3.668811 -42.737204 2.021827 -6.928991 -62.784840 -79.478994 67.121525 0.000000 0.000000 0.000000 11.596991 0.641344 -5.204971 33.973423 -4.768202 -2.753322 51.683872 61.676132 25.412073 0.000000 0.000000 0.000000 
-1.581740 0.881581 1.968650 -10.641519 -59.147617 -9.647410 7.701248 2.499053 -10.917221 28.889835 5.136678 81.281926 -12.618655 -29.095847 -3.086172 0.000000 0.000000 0.000000 -1.284189 0.321211 -2.318585 6.215716 6.872925 37.468667 -6.596895 -5.865236 -7.517475 0.000000 0.000000 0.000000 -2.953583 4.023082 29.500547 -7.303499 6.929031 9.070236 16.244878 -2.124986 -11.468246 -17.132532 13.602817 -2.167454 0.000000 0.000000 0.000000 -32.872913 16.285618 -7.042132 -40.769336 6.244210 -7.548241 -56.101041 -72.607925 52.553652 0.000000 0.000000 0.000000 12.408460 0.318851 -4.839502 34.552991 -1.523448 -1.883418 53.050655 68.563483 31.260972 0.000000 0.000000 0.000000 
-1.667281 0.863066 2.037544 -9.423974 -56.066910 -13.537259 7.924484 4.097199 -21.095790 16.504869 10.261273 73.119323 -2.503908 -26.139366 -28.408370 0.000000 0.000000 0.000000 -3.838332 0.793975 6.566587 9.048838 6.274231 41.037547 -8.589198 -8.725038 -10.691942 0.000000 0.000000 0.000000 -4.502326 4.204472 29.558799 -8.591667 7.135761 7.853517 15.418695 1.198332 -7.671795 -16.406405 12.762874 -3.106812 0.000000 0.000000 0.000000 -34.948313 17.747747 -9.575838 -36.175339 10.344905 -7.886932 -44.574783 -71.576985 40.603713 0.000000 0.000000 0.000000 13.404537 1.777616 -4.100483 35.482311 0.281587 -1.498155 48.339353 69.718796 29.343662 0.000000 0.000000 0.000000 
-1.743675 0.864046 2.116137 -8.882937 -52.589942 -14.245841 4.428791 2.973728 -24.838987 0.525067 9.996633 44.941232 -5.109155 -10.983577 -6.202936 0.000000 0.000000 0.000000 -4.795468 2.334248 17.382963 8.443794 4.593974 38.239611 -7.647279 -7.495322 -10.453201 0.000000 0.000000 0.000000 -5.295830 3.474568 27.122744 -12.113343 9.430610 7.522630 16.549821 5.608552 -9.705502 -16.693100 13.588706 0.954105 0.000000 0.000000 0.000000 -32.964903 17.615238 -10.752110 -33.989542 13.139043 -7.473974 -35.380903 -70.314074 31.512115 0.000000 0.000000 0.000000 12.378961 -0.194169 -3.894658 38.975333 -1.546342 -2.502671 48.286210 66.069085 28.244147 0.000000 0.000000 0.000000 
-1.811384 0.869606 2.206375 -10.821053 -47.841351 -13.904429 -0.070549 0.135137 -19.433516 -4.035436 3.543658 19.159788 -1.863210 -1.231380 21.963871 0.000000 0.000000 0.000000 -6.634025 3.958177 24.496054 11.703255 2.470923 38.169249 0.374826 -2.003946 3.402393 0.000000 0.000000 0.000000 -4.141206 1.988907 23.151840 -10.871434 7.992439 6.646048 14.204944 7.233701 -8.510210 -16.983196 15.434487 6.924239 0.000000 0.000000 0.000000 -30.310304 20.392204 -12.932107 -33.703305 15.991852 -7.770209 -32.664081 -67.373052 27.492451 0.000000 0.000000 0.000000 12.781444 -0.541168 -3.779649 39.603837 -4.399365 -3.694118 49.798500 58.527606 25.983297 0.000000 0.000000 0.000000 
-1.867715 0.870359 2.298478 -11.902893 -42.179662 -15.742368 -5.673945 -1.521319 -11.935986 -2.577700 1.534817 12.465667 0.190471 2.751217 30.919959 0.000000 0.000000 0.000000 -8.355245 3.766577 24.685083 14.211374 2.389333 48.135746 6.089883 -2.054852 21.209181 0.000000 0.000000 0.000000 -3.533188 1.255308 21.374571 -10.943278 7.397229 5.215285 13.504298 7.906252 -5.029125 -16.468835 16.166178 10.576728 0.000000 0.000000 0.000000 -26.766187 19.208767 -11.844753 -37.182714 16.758052 -8.875957 -29.272758 -67.180440 24.820005 0.000000 0.000000 0.000000 16.993631 -1.494787 -4.959952 38.889381 -8.418807 -4.967100 47.054572 57.398007 24.783653 0.000000 0.000000 0.000000 
-1.912151 0.866911 2.378690 -11.548314 -34.866594 -17.986932 -12.073517 -1.543878 -5.055078 -4.344691 2.090979 14.454922 9.247966 15.635862 20.462790 0.000000 0.000000 0.000000 -10.194943 2.317789 18.356473 16.279411 2.452519 62.137063 5.010814 -5.090728 29.114899 0.000000 0.000000 0.000000 -4.517317 0.984793 20.437203 -10.878205 7.586232 6.816652 12.780065 5.939780 -3.899892 -17.761756 15.730269 4.820032 0.000000 0.000000 0.000000 -23.803394 17.744486 -10.538079 -38.840615 12.699217 -8.140166 -25.851472 -65.375000 21.611381 0.000000 0.000000 0.000000 20.560690 -0.202216 -5.077936 39.631350 -9.354238 -5.302994 36.576234 54.192172 17.841513 0.000000 0.000000 0.000000 
-1.944363 0.868452 2.445496 -11.469249 -25.765757 -19.401396 -15.751211 -0.628100 -0.089350 -4.724418 2.210712 18.608798 9.230514 17.805316 13.767914 0.000000 0.000000 0.000000 -9.864152 0.713175 9.832365 15.590049 1.438499 69.686653 -1.916874 -11.763799 21.896384 0.000000 0.000000 0.000000 -5.862418 0.985261 22.014110 -8.300466 5.564223 6.979965 10.114399 3.628475 -3.940562 -16.402123 14.032233 3.128725 0.000000 0.000000 0.000000 -23.483752 14.547658 -8.942234 -39.721070 9.077223 -7.335423 -23.173104 -66.727307 19.878931 0.000000 0.000000 0.000000 23.929842 0.477394 -5.081579 40.017637 -11.627766 -6.165061 30.316609 48.183857 13.140166 0.000000 0.000000 0.000000 
-1.966492 0.874525 2.502532 -12.591110 -15.690264 -19.624855 -16.612935 0.558166 4.680480 -2.966734 1.074545 20.944750 5.675918 12.845856 11.810271 0.000000 0.000000 0.000000 -5.944118 0.049047 -0.593589 9.507986 2.234743 70.845574 -5.000725 -14.368760 10.098557 0.000000 0.000000 0.000000 -5.168125 0.468727 23.765494 -7.260763 4.753262 7.964125 9.565259 0.043333 -4.963613 -17.640146 14.989248 3.139041 0.000000 0.000000 0.000000 -23.563153 10.447464 -6.745223 -40.615075 4.293125 -6.044373 -23.706741 -66.061372 19.757501 0.000000 0.000000 0.000000 24.850043 0.321442 -5.221292 40.997316 -14.008417 -7.129042 25.152154 42.523668 9.496683 0.000000 0.000000 0.000000 
-1.981031 0.883368 2.552870 -14.816844 -4.740211 -20.376588 -15.220496 1.810512 10.592043 -0.860908 -0.355984 21.221578 2.678882 8.833360 11.899394 0.000000 0.000000 0.000000 -1.465833 0.648675 -7.611924 3.798047 0.842803 61.339998 -5.711797 -15.467375 10.268572 0.000000 0.000000 0.000000 -3.885636 -0.374804 25.676423 -4.030299 2.396497 9.062382 7.894449 -2.335994 -5.076575 -16.058885 12.826865 -0.135970 0.000000 0.000000 0.000000 -23.089326 8.444602 -6.092711 -42.100993 -1.829989 -4.131771 -28.292438 -68.322967 23.129198 0.000000 0.000000 0.000000 24.391510 0.350512 -4.302723 41.819336 -15.455851 -8.077879 22.582487 37.952635 7.848661 0.000000 0.000000 0.000000 
-1.990811 0.889791 2.598451 -17.366264 6.189873 -20.429236 -12.821236 2.277510 15.503897 2.102583 -1.762850 20.303697 0.091045 4.994322 10.100850 0.000000 0.000000 0.000000 2.479710 1.659952 -13.509013 -0.892935 -0.013755 47.135473 1.457808 1.829306 3.895078 0.000000 0.000000 0.000000 -3.739025 -1.342900 28.875841 -0.936519 0.244357 6.441468 8.157261 -3.320816 -3.632016 -15.180453 11.781815 -2.624852 0.000000 0.000000 0.000000 -22.179216 5.349756 -4.969412 -43.603899 -8.867083 -1.720809 -30.550368 -69.925201 24.408335 0.000000 0.000000 0.000000 21.299857 -0.990573 -3.426472 45.166936 -14.501831 -9.032880 18.424482 32.999862 5.898231 0.000000 0.000000 0.000000 
-1.993707 0.885351 2.641688 -19.455593 15.131255 -20.986428 -9.408793 1.826571 18.540027 2.735361 -2.404208 21.062922 -2.085218 1.334949 8.419222 0.000000 0.000000 0.000000 5.116745 2.381148 -17.989618 -0.971725 -0.993356 34.252052 9.892112 21.021029 3.659142 0.000000 0.000000 0.000000 -2.848832 -2.658277 31.677892 1.646833 -1.237223 4.657090 6.934692 -3.152884 -1.578091 -15.062209 11.731846 -2.852508 0.000000 0.000000 0.000000 -21.118168 1.126327 -3.531244 -43.474897 -14.075578 0.323616 -32.271852 -74.896632 26.537269 0.000000 0.000000 0.000000 20.985850 -1.716049 -2.572466 44.759824 -13.804925 -9.124595 17.709361 32.262047 5.992432 0.000000 0.000000 0.000000 
